<svg xmlns="http://www.w3.org/2000/svg" width="1440" height="900"><path d="M930,150L963,-109L497,-27Z" fill="#c6c3df" stroke="#c6c3df" stroke-width="1.51"/><path d="M497,-27L458,95L930,150Z" fill="#d0cee5" stroke="#d0cee5" stroke-width="1.51"/><path d="M963,-109L860,-398L497,-27Z" fill="#c8c5e0" stroke="#c8c5e0" stroke-width="1.51"/><path d="M497,-27L249,-52L458,95Z" fill="#e7e6f2" stroke="#e7e6f2" stroke-width="1.51"/><path d="M441,-429L249,-52L497,-27Z" fill="#e8e7f2" stroke="#e8e7f2" stroke-width="1.51"/><path d="M860,-398L441,-429L497,-27Z" fill="#d7d5e9" stroke="#d7d5e9" stroke-width="1.51"/><path d="M457,786L1074,741L930,150Z" fill="#8784bd" stroke="#8784bd" stroke-width="1.51"/><path d="M249,-52L223,98L458,95Z" fill="#ebeaf4" stroke="#ebeaf4" stroke-width="1.51"/><path d="M930,150L1360,224L963,-109Z" fill="#af9dcd" stroke="#af9dcd" stroke-width="1.51"/><path d="M963,-109L1273,-573L860,-398Z" fill="#b6a9d3" stroke="#b6a9d3" stroke-width="1.51"/><path d="M1277,687L1360,224L930,150Z" fill="#8c77b8" stroke="#8c77b8" stroke-width="1.51"/><path d="M1360,224L1421,-269L963,-109Z" fill="#ab8fc6" stroke="#ab8fc6" stroke-width="1.51"/><path d="M860,-398L1273,-573L441,-429Z" fill="#c1bedd" stroke="#c1bedd" stroke-width="1.51"/><path d="M1421,-269L1273,-573L963,-109Z" fill="#ac92c9" stroke="#ac92c9" stroke-width="1.51"/><path d="M457,786L930,150L458,95Z" fill="#b5b4d7" stroke="#b5b4d7" stroke-width="1.51"/><path d="M223,98L119,543L458,95Z" fill="#dddcec" stroke="#dddcec" stroke-width="1.51"/><path d="M-175,100L119,543L223,98Z" fill="#e6e5f1" stroke="#e6e5f1" stroke-width="1.51"/><path d="M249,-52L-175,100L223,98Z" fill="#f6f4f9" stroke="#f6f4f9" stroke-width="1.51"/><path d="M441,-429L-53,-273L249,-52Z" fill="#f3f2f8" stroke="#f3f2f8" stroke-width="1.51"/><path d="M119,543L457,786L458,95Z" fill="#b9b7d8" stroke="#b9b7d8" stroke-width="1.51"/><path d="M1273,-573L117,-572L441,-429Z" fill="#d6d4e8" stroke="#d6d4e8" stroke-width="1.51"/><path d="M441,-429L117,-572L-53,-273Z" fill="#f6f4f9" stroke="#f6f4f9" stroke-width="1.51"/><path d="M1074,741L1277,687L930,150Z" fill="#796ab0" stroke="#796ab0" stroke-width="1.51"/><path d="M-53,-273L-175,100L249,-52Z" fill="#fcfafd" stroke="#fcfafd" stroke-width="1.51"/><path d="M1779,-169L1421,-269L1360,224Z" fill="#a17fbd" stroke="#a17fbd" stroke-width="1.51"/><path d="M1779,-169L1606,-488L1421,-269Z" fill="#a17fbd" stroke="#a17fbd" stroke-width="1.51"/><path d="M1421,-269L1606,-488L1273,-573Z" fill="#a180bd" stroke="#a180bd" stroke-width="1.51"/><path d="M-53,-273L-249,-97L-175,100Z" fill="#fcfbfd" stroke="#fcfbfd" stroke-width="1.51"/><path d="M-649,-295L-249,-97L-53,-273Z" fill="#fcfbfd" stroke="#fcfbfd" stroke-width="1.51"/><path d="M457,786L718,1145L1074,741Z" fill="#7052a2" stroke="#7052a2" stroke-width="1.51"/><path d="M119,543L256,886L457,786Z" fill="#a28cc4" stroke="#a28cc4" stroke-width="1.51"/><path d="M-82,590L256,886L119,543Z" fill="#b09fce" stroke="#b09fce" stroke-width="1.51"/><path d="M-175,100L-82,590L119,543Z" fill="#d2d0e6" stroke="#d2d0e6" stroke-width="1.51"/><path d="M-382,60L-82,590L-175,100Z" fill="#e7e7f2" stroke="#e7e7f2" stroke-width="1.51"/><path d="M1277,687L1591,580L1360,224Z" fill="#6d50a1" stroke="#6d50a1" stroke-width="1.51"/><path d="M1591,580L1754,219L1360,224Z" fill="#8163ac" stroke="#8163ac" stroke-width="1.51"/><path d="M1754,219L1779,-169L1360,224Z" fill="#9c7aba" stroke="#9c7aba" stroke-width="1.51"/><path d="M-649,-295L-382,60L-249,-97Z" fill="#fcfbfd" stroke="#fcfbfd" stroke-width="1.51"/><path d="M-249,-97L-382,60L-175,100Z" fill="#fbf9fd" stroke="#fbf9fd" stroke-width="1.51"/><path d="M256,886L718,1145L457,786Z" fill="#8668af" stroke="#8668af" stroke-width="1.51"/><path d="M1228,1095L1540,857L1277,687Z" fill="#471183" stroke="#471183" stroke-width="1.51"/><path d="M1277,687L1540,857L1591,580Z" fill="#52288d" stroke="#52288d" stroke-width="1.51"/><path d="M2143,445L1950,-17L1754,219Z" fill="#9171b4" stroke="#9171b4" stroke-width="1.51"/><path d="M1228,1095L1277,687L1074,741Z" fill="#54288e" stroke="#54288e" stroke-width="1.51"/><path d="M1064,1158L1228,1095L1074,741Z" fill="#532a8d" stroke="#532a8d" stroke-width="1.51"/><path d="M718,1145L1064,1158L1074,741Z" fill="#5f3f98" stroke="#5f3f98" stroke-width="1.51"/><path d="M1754,219L1950,-17L1779,-169Z" fill="#a17ebc" stroke="#a17ebc" stroke-width="1.51"/><path d="M1779,-169L2109,-343L1606,-488Z" fill="#a17fbd" stroke="#a17fbd" stroke-width="1.51"/><path d="M2143,445L1754,219L2120,581Z" fill="#7658a5" stroke="#7658a5" stroke-width="1.51"/><path d="M718,1145L974,1247L1064,1158Z" fill="#61439a" stroke="#61439a" stroke-width="1.51"/><path d="M1064,1158L1344,1439L1228,1095Z" fill="#4d1e88" stroke="#4d1e88" stroke-width="1.51"/><path d="M-448,739L-111,966L-82,590Z" fill="#ac92c8" stroke="#ac92c8" stroke-width="1.51"/><path d="M-82,590L-111,966L256,886Z" fill="#a789c3" stroke="#a789c3" stroke-width="1.51"/><path d="M256,886L183,1224L718,1145Z" fill="#8e6eb3" stroke="#8e6eb3" stroke-width="1.51"/><path d="M718,1145L653,1351L974,1247Z" fill="#6d4ea0" stroke="#6d4ea0" stroke-width="1.51"/><path d="M-111,966L183,1224L256,886Z" fill="#9d7bba" stroke="#9d7bba" stroke-width="1.51"/><path d="M183,1224L653,1351L718,1145Z" fill="#8365ad" stroke="#8365ad" stroke-width="1.51"/><path d="M-111,966L-166,1370L183,1224Z" fill="#a17fbd" stroke="#a17fbd" stroke-width="1.51"/><path d="M-710,425L-448,739L-82,590Z" fill="#bcb5d9" stroke="#bcb5d9" stroke-width="1.51"/><path d="M1950,-17L2109,-343L1779,-169Z" fill="#a17fbd" stroke="#a17fbd" stroke-width="1.51"/><path d="M2143,445L2109,-343L1950,-17Z" fill="#9f7dbc" stroke="#9f7dbc" stroke-width="1.51"/><path d="M117,-572L-649,-295L-53,-273Z" fill="#fcfbfd" stroke="#fcfbfd" stroke-width="1.51"/><path d="M-382,60L-710,425L-82,590Z" fill="#d9d8ea" stroke="#d9d8ea" stroke-width="1.51"/><path d="M2120,581L1591,580L2042,1029Z" fill="#50238b" stroke="#50238b" stroke-width="1.51"/><path d="M2120,581L1754,219L1591,580Z" fill="#7051a2" stroke="#7051a2" stroke-width="1.51"/><path d="M2042,1029L1591,580L1540,857Z" fill="#471083" stroke="#471083" stroke-width="1.51"/><path d="M1344,1439L1540,857L1228,1095Z" fill="#430980" stroke="#430980" stroke-width="1.51"/><path d="M-649,-295L-710,425L-382,60Z" fill="#f8f7fa" stroke="#f8f7fa" stroke-width="1.51"/><path d="M-710,425L-480,945L-448,739Z" fill="#b19dcd" stroke="#b19dcd" stroke-width="1.51"/><path d="M-448,739L-480,945L-111,966Z" fill="#a281be" stroke="#a281be" stroke-width="1.51"/><path d="M974,1247L1344,1439L1064,1158Z" fill="#53288d" stroke="#53288d" stroke-width="1.51"/><path d="M653,1351L1344,1439L974,1247Z" fill="#5c3a95" stroke="#5c3a95" stroke-width="1.51"/><path d="M653,1351L-166,1370L1344,1439Z" fill="#7b5da8" stroke="#7b5da8" stroke-width="1.51"/><path d="M183,1224L-166,1370L653,1351Z" fill="#9876b8" stroke="#9876b8" stroke-width="1.51"/><path d="M-480,945L-166,1370L-111,966Z" fill="#a17fbd" stroke="#a17fbd" stroke-width="1.51"/><path d="M1789,1521L2042,1029L1540,857Z" fill="#3f007d" stroke="#3f007d" stroke-width="1.51"/><path d="M1344,1439L1789,1521L1540,857Z" fill="#3f007d" stroke="#3f007d" stroke-width="1.51"/><path d="M-166,1370L1789,1521L1344,1439Z" fill="#5c3a96" stroke="#5c3a96" stroke-width="1.51"/><path d="M-480,945L-713,1224L-166,1370Z" fill="#a17fbd" stroke="#a17fbd" stroke-width="1.51"/><path d="M-710,425L-713,1224L-480,945Z" fill="#a484c0" stroke="#a484c0" stroke-width="1.51"/><path d="M1789,1521L2051,1510L2042,1029Z" fill="#3f007d" stroke="#3f007d" stroke-width="1.51"/><path d="M2042,1029L2051,1510L2120,581Z" fill="#3f007d" stroke="#3f007d" stroke-width="1.51"/><path d="M2120,581L2051,1510L2143,445Z" fill="#440c81" stroke="#440c81" stroke-width="1.51"/></svg>